<svg width="220" height="122" viewBox="0 0 220 122" fill="none" xmlns="http://www.w3.org/2000/svg">
<path d="M121.402 60.7012C121.402 94.2154 94.2154 121.402 60.7012 121.402C27.187 121.402 0 94.2154 0 60.7012C0 27.187 27.187 0 60.7012 0C94.2377 0 121.402 27.187 121.402 60.7012Z" fill="#232018"/>
<path d="M74.1832 116.774C73.0206 117.043 71.858 117.289 70.6731 117.49L69.108 114.315C70.5613 112.728 71.8804 111.028 73.0877 109.24L74.1832 116.774Z" fill="#FFCC00"/>
<path d="M61.7748 118.362C61.4171 118.362 61.0594 118.362 60.7017 118.362C50.1935 118.362 40.3338 115.545 31.8379 110.626C31.6814 95.2214 35.974 80.0405 44.224 66.9165C49.0309 69.7559 53.1448 73.6015 56.2972 78.2295C59.5167 82.9917 61.596 88.4023 62.3785 94.0811C63.0939 99.2905 62.7139 104.567 61.2606 109.597C62.4232 105.931 63.0939 102.085 63.1834 98.1726C63.407 89.6766 61.037 81.3596 56.4313 74.3169C62.6244 76.9328 69.9578 77.6929 78.3419 72.5059L78.3643 72.4836L78.3866 72.4612C81.0695 83.5506 80.4212 101.906 61.7748 118.362Z" fill="#FFCC00"/>
<path d="M65.755 68.3253C63.2286 68.1018 60.7469 67.2745 58.6006 65.9107C56.4319 64.5692 54.5985 62.7135 53.2794 60.5448C51.9603 58.3538 51.1554 55.8944 50.9319 53.3457C50.7083 50.7969 51.1107 48.2481 52.0498 45.8558C50.5294 47.3538 49.3445 49.1871 48.5619 51.1546C47.7794 53.1668 47.4217 55.2908 47.4888 57.4371C47.5559 59.5835 48.0924 61.6851 49.0091 63.6302C49.9258 65.553 51.2449 67.2745 52.877 68.6831C54.4867 70.0692 56.4095 71.1424 58.4441 71.7684C60.4786 72.3944 62.6473 72.5957 64.7713 72.3497C66.8953 72.1038 68.9522 71.4331 70.8079 70.3599C72.6636 69.2867 74.2733 67.8335 75.5477 66.1119C72.5518 67.8558 69.1534 68.6607 65.755 68.3253Z" fill="#FFCC00"/>
<path d="M80.6673 35.5488C78.9681 34.7215 77.1795 34.0061 75.3685 33.4024C75.771 32.8658 76.0393 32.2622 76.1958 31.6362C76.3746 30.9207 76.3746 30.1606 76.1958 29.4004C77.9173 31.3008 79.3929 33.3577 80.6673 35.5488Z" fill="#FFCC00"/>
<path d="M81.8077 60.7009C80.891 62.7802 79.7508 64.7253 78.3422 66.5139C77.0455 64.2334 75.5922 62.02 74.0719 59.8737C75.3016 59.2477 76.6654 59.0017 78.0516 59.1582C79.4154 59.2924 80.7345 59.8066 81.8077 60.7009Z" fill="#FFCC00"/>
<path d="M70.9641 58.7336C67.9235 53.8373 65.956 51.445 62.0658 47.6218C61.6633 48.2255 61.4174 48.7844 61.1938 49.4552C59.8971 53.4348 61.9316 57.7275 65.7772 58.9795C67.5434 59.5832 69.3097 59.5161 70.9641 58.7336Z" fill="#FFCC00"/>
<path d="M40.8035 33.447C40.8482 33.2905 40.8706 33.1117 40.9153 32.9551C41.4072 30.8759 42.2121 28.886 43.3299 27.0751C44.336 31.1442 46.5718 34.7885 49.6795 37.5385C49.0759 38.2763 48.4275 39.3047 47.8238 40.758C48.4051 40.1767 49.7913 39.0141 51.6246 37.9409C51.647 37.9186 51.6694 37.9186 51.6917 37.8962C56.3421 35.5934 61.4844 34.4755 66.6714 34.632C72.2161 34.8108 77.6267 36.443 82.3441 39.3942C84.3563 44.6482 84.7364 50.3942 83.4397 55.8494C83.2608 56.6543 83.0372 57.4368 82.7689 58.2417C81.271 57.258 79.5271 56.6767 77.7384 56.6096C75.9498 56.5425 74.1612 56.9673 72.5962 57.8393C58.1084 34.4084 46.9519 41.4064 43.1734 47.9348L43.1511 47.9572V47.9795C43.1064 47.9125 43.0616 47.8454 43.0393 47.7783C42.9051 47.5547 42.7934 47.3535 42.6592 47.1299V47.1076C40.4682 42.9043 39.8421 38.0974 40.8035 33.4917V33.447Z" fill="#FFCC00"/>
<path d="M215.64 64.4573L209.313 86.815H209.246L202.963 64.4573H198.671L192.366 86.815H192.299L186.016 64.4573H181.254L189.795 94.3495H194.311L200.549 72.8861H200.661L206.719 94.3495H211.236L220 64.4573H215.64Z" fill="#232018"/>
<path d="M180.024 70.5832C179.04 68.6157 177.654 67.0953 175.821 66.0445C174.032 64.9714 171.908 64.4795 169.538 64.4795C167.124 64.4795 165.044 64.9937 163.256 66.0445C161.467 67.1177 160.036 68.6157 159.008 70.5832C158.024 72.5283 157.554 74.8535 157.554 77.514V81.2925C157.554 83.9531 158.024 86.3006 159.008 88.2681C160.036 90.2132 161.422 91.7112 163.256 92.7843C165.044 93.8575 167.168 94.3494 169.538 94.3494C171.953 94.3494 174.032 93.8352 175.821 92.7843C177.609 91.7112 179.04 90.2579 180.024 88.2681C181.052 86.3006 181.567 83.9531 181.567 81.2925V77.514C181.567 74.8535 181.052 72.5283 180.024 70.5832ZM177.341 81.2925V81.3372C177.341 84.3555 176.626 86.636 175.239 88.1787C173.853 89.699 171.953 90.5039 169.493 90.5039C166.967 90.5039 165 89.699 163.658 88.1563C162.361 86.5913 161.713 84.3108 161.713 81.3148V77.5364C161.713 74.5181 162.406 72.2823 163.77 70.6949C165.156 69.1299 167.056 68.3474 169.516 68.3474C172.042 68.3474 173.965 69.1523 175.306 70.6949C176.648 72.2376 177.341 74.5405 177.341 77.5364V81.2925Z" fill="#232018"/>
<path d="M154.872 94.3495V64.4573H150.781V85.7865L136.516 64.4573H132.581V94.3495H136.673V72.752L151.094 94.3495H154.872Z" fill="#232018"/>
<path d="M215.64 27.053L209.313 49.4107H209.246L202.963 27.053H198.671L192.366 49.4107H192.299L186.016 27.053H181.254L189.795 56.9676H194.311L200.549 35.5265H200.661L206.719 56.9676H211.236L220 27.053H215.64Z" fill="#232018"/>
<path d="M171.954 27.053H167.125L155.454 56.9676H159.836L162.296 50.5286H176.314L178.818 56.9676H183.67L171.954 27.053ZM163.682 46.5265L169.182 32.24H169.45L174.905 46.5265H163.682Z" fill="#232018"/>
<path d="M137.053 52.8761V27.053H132.581V56.9676H151.34L153.016 52.8761H137.053Z" fill="#232018"/>
</svg>
